<svg version="1.1" id="Layer_1" xmlns="http://www.w3.org/2000/svg" xmlns:xlink="http://www.w3.org/1999/xlink" x="0px" y="0px"
	 width="100%" viewBox="0 0 512 512" enable-background="new 0 0 512 512" xml:space="preserve">
<path fill="#FFFFFF" opacity="1.000000" stroke="none" 
	d="
M346.000000,513.000000 
	C230.694687,513.000000 115.889366,513.000000 1.042022,513.000000 
	C1.042022,342.402985 1.042022,171.805969 1.042022,1.104477 
	C171.555328,1.104477 342.110718,1.104477 512.833069,1.104477 
	C512.833069,171.666534 512.833069,342.333252 512.833069,513.000000 
	C457.472565,513.000000 401.986298,513.000000 346.000000,513.000000 
M117.693047,387.935638 
	C118.626541,387.269348 119.643288,386.693665 120.481430,385.923584 
	C143.357101,364.905151 170.527451,352.554169 200.616089,345.970947 
	C222.511978,341.180267 244.885727,343.133820 266.968140,341.019409 
	C282.287933,339.552521 297.728699,338.930176 312.919525,336.634216 
	C335.722382,333.187805 357.822693,326.782257 379.718964,319.381256 
	C411.333130,308.695679 436.307617,289.902557 454.369171,261.949463 
	C469.393005,238.697693 479.163940,213.199921 485.851318,186.452988 
	C486.546326,183.673264 486.723206,180.763992 487.140442,177.914825 
	C486.601471,177.551025 486.062500,177.187225 485.523529,176.823410 
	C484.510864,178.294144 483.678680,179.938766 482.456390,181.207504 
	C474.294434,189.679337 466.689697,198.838654 457.703278,206.335373 
	C436.324585,224.170044 412.234558,237.936569 387.113617,249.756851 
	C348.865997,267.753693 309.147339,281.737610 267.858124,290.889099 
	C253.359619,294.102600 238.468872,295.502289 223.864899,298.293549 
	C194.617722,303.883545 170.295746,318.898224 149.979691,339.993744 
	C140.045609,350.308960 132.055023,362.549408 123.643677,374.248383 
	C120.716461,378.319702 119.169235,383.383270 116.688026,388.094299 
	C116.794106,388.065308 116.900185,388.036316 117.693047,387.935638 
M53.944450,411.162994 
	C53.300827,416.744904 53.232670,422.468689 51.898556,427.880371 
	C48.733425,440.719360 45.721241,453.683868 41.220253,466.079498 
	C37.224285,477.084320 29.476517,486.073181 21.191227,494.384857 
	C20.043962,495.535767 19.081537,496.870972 18.033545,498.120850 
	C18.355947,498.499756 18.678350,498.878662 19.000753,499.257599 
	C20.884848,498.374115 22.920258,497.715271 24.625603,496.566467 
	C30.541092,492.581635 36.599636,488.745819 42.137238,484.275421 
	C57.705818,471.707184 72.160187,457.941772 83.157082,441.084106 
	C90.708107,429.508789 96.473671,417.056763 99.208717,403.288727 
	C101.206955,393.229767 103.024445,382.971466 106.599876,373.430634 
	C111.071999,361.497040 116.924873,350.031281 122.831627,338.702454 
	C126.728905,331.227722 130.898788,323.571411 136.456894,317.344482 
	C156.490341,294.900177 182.390915,282.498260 211.545929,277.113586 
	C249.312988,270.138367 285.696014,259.001099 320.420929,242.686737 
	C347.898407,229.777374 373.570374,213.921921 396.638397,193.992813 
	C420.417480,173.449448 440.471375,149.869446 454.443390,121.657059 
	C460.593628,109.238434 465.537903,96.108543 469.798462,82.904305 
	C473.177185,72.433105 474.926575,61.401852 476.921295,50.531536 
	C478.080963,44.211945 478.550476,37.731831 478.868286,31.301107 
	C479.189148,24.808323 478.938995,18.287319 478.938995,10.835876 
	C475.477020,15.554276 472.370148,19.058926 470.083221,23.035133 
	C461.396210,38.138927 449.511688,50.576283 435.990570,61.035568 
	C419.738312,73.607559 402.698517,85.272537 385.316345,96.248009 
	C355.413879,115.129051 323.927460,130.763214 289.538086,140.095901 
	C267.755402,146.007355 246.276154,153.034729 224.502716,158.982910 
	C190.147568,168.368256 156.124146,178.383438 124.583572,195.577393 
	C106.221687,205.587128 88.797089,216.435852 74.360641,231.919174 
	C52.840069,255.000381 39.793812,281.283569 41.047535,313.488617 
	C41.323772,320.584534 41.190285,327.927795 42.992943,334.691406 
	C49.599213,359.478333 54.688728,384.402313 53.944450,411.162994 
M17.630371,500.508331 
	C17.630371,500.508331 17.460648,500.409058 17.460648,500.409058 
	C17.460648,500.409058 17.483339,500.606445 17.630371,500.508331 
z"/>
<path fill="#C0F2FF" opacity="1.000000" stroke="none" 
	d="
M53.961830,410.690125 
	C54.688728,384.402313 49.599213,359.478333 42.992943,334.691406 
	C41.190285,327.927795 41.323772,320.584534 41.047535,313.488617 
	C39.793812,281.283569 52.840069,255.000381 74.360641,231.919174 
	C88.797089,216.435852 106.221687,205.587128 124.583572,195.577393 
	C156.124146,178.383438 190.147568,168.368256 224.502716,158.982910 
	C246.276154,153.034729 267.755402,146.007355 289.538086,140.095901 
	C323.927460,130.763214 355.413879,115.129051 385.316345,96.248009 
	C402.698517,85.272537 419.738312,73.607559 435.990570,61.035568 
	C449.511688,50.576283 461.396210,38.138927 470.083221,23.035133 
	C472.370148,19.058926 475.477020,15.554276 478.938995,10.835876 
	C478.938995,18.287319 479.189148,24.808323 478.868286,31.301107 
	C478.550476,37.731831 478.080963,44.211945 476.921295,50.531536 
	C474.926575,61.401852 473.177185,72.433105 469.798462,82.904305 
	C465.537903,96.108543 460.593628,109.238434 454.443390,121.657059 
	C440.471375,149.869446 420.417480,173.449448 396.638397,193.992813 
	C373.570374,213.921921 347.898407,229.777374 320.420929,242.686737 
	C285.696014,259.001099 249.312988,270.138367 211.545929,277.113586 
	C182.390915,282.498260 156.490341,294.900177 136.456894,317.344482 
	C130.898788,323.571411 126.728905,331.227722 122.831627,338.702454 
	C116.924873,350.031281 111.071999,361.497040 106.599876,373.430634 
	C103.024445,382.971466 101.206955,393.229767 99.208717,403.288727 
	C96.473671,417.056763 90.708107,429.508789 83.157082,441.084106 
	C72.160187,457.941772 57.705818,471.707184 42.137238,484.275421 
	C36.599636,488.745819 30.541092,492.581635 24.625603,496.566467 
	C22.920258,497.715271 20.884848,498.374115 19.000753,499.257599 
	C18.678350,498.878662 18.355947,498.499756 18.033545,498.120850 
	C19.081537,496.870972 20.043962,495.535767 21.191227,494.384857 
	C29.476517,486.073181 37.224285,477.084320 41.220253,466.079498 
	C45.721241,453.683868 48.733425,440.719360 51.898556,427.880371 
	C53.232670,422.468689 53.300827,416.744904 53.961830,410.690125 
z"/>
<path fill="#C1F2FF" opacity="1.000000" stroke="none" 
	d="
M116.991760,387.993652 
	C119.169235,383.383270 120.716461,378.319702 123.643677,374.248383 
	C132.055023,362.549408 140.045609,350.308960 149.979691,339.993744 
	C170.295746,318.898224 194.617722,303.883545 223.864899,298.293549 
	C238.468872,295.502289 253.359619,294.102600 267.858124,290.889099 
	C309.147339,281.737610 348.865997,267.753693 387.113617,249.756851 
	C412.234558,237.936569 436.324585,224.170044 457.703278,206.335373 
	C466.689697,198.838654 474.294434,189.679337 482.456390,181.207504 
	C483.678680,179.938766 484.510864,178.294144 485.523529,176.823410 
	C486.062500,177.187225 486.601471,177.551025 487.140442,177.914825 
	C486.723206,180.763992 486.546326,183.673264 485.851318,186.452988 
	C479.163940,213.199921 469.393005,238.697693 454.369171,261.949463 
	C436.307617,289.902557 411.333130,308.695679 379.718964,319.381256 
	C357.822693,326.782257 335.722382,333.187805 312.919525,336.634216 
	C297.728699,338.930176 282.287933,339.552521 266.968140,341.019409 
	C244.885727,343.133820 222.511978,341.180267 200.616089,345.970947 
	C170.527451,352.554169 143.357101,364.905151 120.481430,385.923584 
	C119.643288,386.693665 118.626541,387.269348 117.346481,387.967834 
	C116.999908,388.000000 116.991753,387.993652 116.991760,387.993652 
z"/>
<path fill="#C1F2FF" opacity="1.000000" stroke="none" 
	d="
M117.003082,388.003662 
	C116.900185,388.036316 116.794106,388.065308 116.839890,388.043976 
	C116.991753,387.993652 116.999908,388.000000 117.003082,388.003662 
z"/>
<path fill="#C0F2FF" opacity="1.000000" stroke="none" 
	d="
M17.556854,500.557373 
	C17.483339,500.606445 17.460648,500.409058 17.460648,500.409058 
	C17.460648,500.409058 17.630371,500.508331 17.556854,500.557373 
z"/>
</svg>